<svg width="1200" height="680" viewBox="0 0 1200 680" fill="none" xmlns="http://www.w3.org/2000/svg">
  <defs>
    <linearGradient id="bg" x1="0" y1="0" x2="1200" y2="680" gradientUnits="userSpaceOnUse">
      <stop stop-color="#0B2B4B"/>
      <stop offset="1" stop-color="#123D61"/>
    </linearGradient>
    <linearGradient id="card" x1="0" y1="0" x2="1" y2="1">
      <stop stop-color="#8B1826"/>
      <stop offset="1" stop-color="#B48A44"/>
    </linearGradient>
  </defs>
  <rect width="1200" height="680" fill="url(#bg)"/>
  <circle cx="1110" cy="-20" r="240" fill="#ffffff" fill-opacity="0.06"/>
  <circle cx="170" cy="650" r="290" fill="#ffffff" fill-opacity="0.08"/>
  <rect x="90" y="90" width="590" height="500" rx="24" fill="#ffffff" fill-opacity="0.08"/>
  <rect x="130" y="140" width="360" height="14" rx="7" fill="#DCE9F5" fill-opacity="0.8"/>
  <rect x="130" y="178" width="460" height="16" rx="8" fill="#DCE9F5" fill-opacity="0.95"/>
  <rect x="130" y="212" width="410" height="16" rx="8" fill="#DCE9F5" fill-opacity="0.9"/>
  <rect x="130" y="254" width="300" height="12" rx="6" fill="#DCE9F5" fill-opacity="0.75"/>
  <rect x="130" y="288" width="250" height="12" rx="6" fill="#DCE9F5" fill-opacity="0.65"/>
  <rect x="130" y="342" width="180" height="52" rx="14" fill="url(#card)"/>
  <rect x="740" y="156" width="360" height="380" rx="24" fill="#ffffff" fill-opacity="0.12"/>
  <rect x="772" y="206" width="296" height="168" rx="16" fill="#ffffff" fill-opacity="0.16"/>
  <rect x="772" y="402" width="220" height="14" rx="7" fill="#DCE9F5" fill-opacity="0.88"/>
  <rect x="772" y="432" width="256" height="14" rx="7" fill="#DCE9F5" fill-opacity="0.68"/>
  <text x="130" y="112" fill="#F0DDB3" font-family="Segoe UI, Arial, sans-serif" font-size="20" font-weight="700">Kinnect Capital | Hero Placeholder</text>
</svg>
