<svg width="1200" height="640" viewBox="0 0 1200 640" fill="none" xmlns="http://www.w3.org/2000/svg">
  <defs>
    <linearGradient id="g1" x1="0" y1="0" x2="1200" y2="640" gradientUnits="userSpaceOnUse">
      <stop stop-color="#F5F1EA"/>
      <stop offset="1" stop-color="#ECE5DB"/>
    </linearGradient>
  </defs>
  <rect width="1200" height="640" fill="url(#g1)"/>
  <rect x="96" y="88" width="510" height="460" rx="20" fill="#fff" fill-opacity="0.72"/>
  <rect x="132" y="138" width="300" height="14" rx="7" fill="#7F1521" fill-opacity="0.5"/>
  <rect x="132" y="174" width="430" height="12" rx="6" fill="#322D2A" fill-opacity="0.3"/>
  <rect x="132" y="202" width="390" height="12" rx="6" fill="#322D2A" fill-opacity="0.25"/>
  <rect x="132" y="244" width="440" height="10" rx="5" fill="#322D2A" fill-opacity="0.18"/>
  <rect x="132" y="266" width="420" height="10" rx="5" fill="#322D2A" fill-opacity="0.18"/>
  <rect x="132" y="288" width="380" height="10" rx="5" fill="#322D2A" fill-opacity="0.18"/>
  <rect x="690" y="88" width="414" height="460" rx="20" fill="#fff" fill-opacity="0.52"/>
  <circle cx="897" cy="236" r="92" fill="#7F1521" fill-opacity="0.14"/>
  <rect x="760" y="378" width="276" height="12" rx="6" fill="#322D2A" fill-opacity="0.25"/>
  <rect x="760" y="406" width="236" height="12" rx="6" fill="#322D2A" fill-opacity="0.2"/>
  <text x="132" y="116" fill="#7F1521" font-family="Segoe UI, Arial, sans-serif" font-size="20" font-weight="700">About / Bio Placeholder</text>
</svg>
